<?xml version="1.0" standalone="no"?>
<!DOCTYPE svg PUBLIC "-//W3C//DTD SVG 20010904//EN"
 "http://www.w3.org/TR/2001/REC-SVG-20010904/DTD/svg10.dtd">
<svg version="1.0" xmlns="http://www.w3.org/2000/svg"
 width="797.000000pt" height="800.000000pt" viewBox="0 0 797.000000 800.000000"
 preserveAspectRatio="xMidYMid meet">
<metadata>
Created by potrace 1.16, written by Peter Selinger 2001-2019
</metadata>
<g transform="translate(0.000000,800.000000) scale(0.100000,-0.100000)"
fill="#000000" stroke="none">
<path d="M0 4000 l0 -4000 3985 0 3985 0 0 4000 0 4000 -540 0 c-297 0 -540
-3 -540 -7 0 -4 20 -45 44 -92 83 -162 115 -278 141 -514 37 -333 10 -529
-145 -1052 -49 -166 -82 -296 -77 -302 10 -9 120 208 172 337 91 228 151 415
210 660 32 129 62 255 69 280 l11 44 37 -69 c99 -190 164 -380 152 -446 -57
-332 -108 -480 -294 -858 -109 -221 -144 -311 -138 -352 2 -16 35 23 126 152
128 179 176 268 344 634 100 217 110 216 160 -15 35 -163 25 -477 -19 -615
-48 -151 -208 -407 -405 -650 -310 -382 -329 -407 -315 -421 4 -4 30 12 59 34
83 65 576 567 659 672 81 102 123 135 139 110 24 -37 4 -235 -36 -370 -31
-103 -63 -161 -156 -282 -218 -284 -356 -420 -655 -648 -40 -30 -71 -56 -69
-58 2 -2 78 38 168 88 252 142 431 264 691 472 81 65 155 118 163 118 25 0 16
-43 -27 -125 -78 -149 -247 -405 -329 -498 -75 -85 -390 -308 -575 -408 -83
-45 -89 -51 -80 -79 8 -26 48 -26 149 0 108 27 477 216 608 311 37 27 70 49
73 49 10 0 5 -80 -10 -148 -19 -90 -65 -217 -99 -271 -89 -140 -261 -245 -586
-356 -149 -51 -171 -64 -144 -86 57 -47 412 43 612 156 43 24 78 40 80 36 3
-10 -60 -184 -96 -263 -41 -89 -125 -158 -280 -230 -121 -57 -165 -64 -324
-50 -73 6 -134 9 -136 7 -7 -7 188 -65 272 -81 49 -9 146 -19 215 -22 l126 -7
-64 -68 c-105 -110 -210 -158 -393 -179 -91 -11 -310 -1 -413 18 -28 6 -29 5
-10 -9 29 -21 247 -137 335 -177 73 -34 78 -35 202 -35 l127 0 -62 -63 c-84
-86 -143 -113 -255 -119 -104 -6 -241 16 -321 53 -59 26 -117 70 -194 143
l-48 46 26 -70 c58 -151 98 -421 76 -502 -22 -82 -96 -139 -194 -150 -29 -3
-61 -14 -72 -23 -62 -55 -153 -78 -183 -48 -18 18 -15 -3 8 -50 11 -22 20 -48
20 -55 0 -18 -150 -167 -167 -167 -7 0 -13 -6 -13 -12 0 -13 -110 -109 -162
-142 -34 -22 -64 -8 -73 34 -9 40 -25 38 -25 -2 0 -84 -100 -207 -196 -244
l-46 -17 47 -18 c94 -36 164 -114 184 -208 6 -28 31 -78 61 -122 35 -51 52
-88 56 -120 8 -58 -11 -148 -39 -191 -46 -69 -187 -138 -278 -138 -55 1 -111
33 -163 93 -39 46 -57 59 -101 72 -86 25 -173 124 -191 219 -9 49 -89 166
-113 166 -10 0 -33 -19 -52 -42 -117 -147 -310 -313 -569 -488 -36 -24 -75
-53 -87 -64 l-23 -19 -47 33 c-387 273 -494 361 -609 501 -62 76 -91 92 -111
63 -8 -11 -29 -40 -48 -66 -19 -26 -35 -55 -35 -65 0 -85 -101 -210 -194 -239
-44 -14 -64 -28 -102 -72 -61 -70 -117 -97 -191 -89 -58 6 -148 43 -201 84
-42 32 -78 109 -87 185 -6 48 -3 65 17 110 14 30 41 75 62 102 20 26 36 59 36
72 0 36 44 118 87 160 20 20 59 46 86 59 l50 22 -62 37 c-34 21 -69 49 -78 62
-9 14 -18 22 -21 20 -12 -13 -169 98 -178 126 -3 10 -13 18 -23 18 -21 0 -131
97 -131 116 0 8 -8 14 -18 14 -16 0 -208 187 -297 289 -35 41 -42 44 -89 46
-77 2 -150 46 -184 110 -24 46 -19 194 13 350 24 114 36 155 71 240 4 11 -27
-12 -70 -52 -139 -127 -242 -166 -446 -167 -107 -1 -132 2 -171 20 -41 19
-179 137 -179 153 0 3 43 4 96 3 112 -5 160 6 268 58 113 54 308 161 303 167
-3 2 -33 -1 -68 -6 -115 -18 -300 -24 -383 -12 -173 24 -281 76 -382 183 l-59
63 125 7 c69 3 167 13 219 22 131 23 342 96 236 82 -119 -16 -256 -18 -302 -6
-131 36 -333 158 -376 228 -37 58 -133 310 -123 320 3 2 19 -6 35 -17 96 -69
370 -167 537 -193 57 -9 76 -8 100 3 16 8 29 20 29 28 0 8 -57 33 -153 66
-168 58 -348 141 -442 205 -107 73 -187 199 -230 365 -23 89 -37 205 -25 205
5 0 32 -18 60 -39 57 -43 267 -162 436 -247 157 -78 318 -116 333 -78 13 33 4
43 -71 80 -90 45 -351 218 -471 311 -90 70 -163 156 -268 316 -37 56 -75 114
-86 129 -10 15 -43 75 -73 133 -99 188 -72 191 140 15 94 -78 173 -138 270
-205 39 -27 90 -63 115 -80 44 -31 295 -179 415 -245 78 -43 66 -31 -160 148
-156 124 -213 176 -317 294 -308 345 -382 487 -404 774 -8 92 -1 134 21 134
20 0 97 -78 172 -175 62 -80 555 -576 626 -629 21 -16 41 -26 44 -22 14 14
-54 106 -273 371 -224 271 -382 518 -439 684 -55 162 -60 503 -10 696 14 55
32 106 39 114 12 11 18 8 38 -25 14 -22 71 -142 129 -269 57 -126 124 -264
149 -305 34 -57 232 -341 256 -369 17 -19 0 80 -25 143 -6 15 -54 114 -105
220 -173 352 -229 501 -276 733 -35 178 -26 240 69 449 55 122 92 187 101 177
4 -4 20 -62 34 -128 87 -381 135 -541 257 -849 35 -88 127 -271 159 -316 18
-26 1 53 -57 255 -69 239 -116 418 -144 548 -20 88 -23 131 -22 307 0 334 47
561 159 768 l44 82 -565 0 -565 0 0 -4000z"/>
<path d="M1156 7938 c-3 -35 -10 -155 -16 -268 -9 -173 -9 -226 5 -340 40
-344 80 -492 210 -785 86 -193 107 -251 106 -299 0 -39 -18 -96 -30 -96 -3 0
-16 39 -29 86 -24 94 -108 275 -193 417 -52 86 -79 108 -79 64 0 -28 67 -219
148 -422 85 -214 105 -281 99 -324 -5 -39 -107 -271 -119 -271 -4 0 -73 111
-154 248 -135 226 -252 412 -276 437 -16 16 0 -45 59 -223 82 -249 112 -308
262 -517 l65 -90 -2 -125 c-3 -122 -2 -127 36 -240 22 -63 51 -144 66 -178 15
-35 26 -68 24 -73 -6 -19 -204 155 -413 363 -116 114 -214 208 -218 208 -31 0
28 -98 183 -304 41 -54 90 -120 109 -145 18 -25 112 -124 207 -220 l173 -174
-14 -28 c-8 -15 -15 -45 -15 -67 0 -49 59 -136 162 -239 59 -60 70 -76 58 -84
-26 -18 -98 -3 -183 39 -108 51 -176 109 -664 566 -41 38 -76 67 -78 64 -8 -8
92 -166 152 -239 96 -117 183 -200 401 -382 l202 -170 -27 -46 c-41 -71 -73
-121 -77 -121 -14 0 -152 58 -224 94 -136 69 -387 243 -630 437 -122 97 -56
-30 72 -140 170 -145 327 -255 616 -429 l115 -69 -2 -93 c-2 -105 -19 -230
-33 -244 -10 -10 -148 36 -375 126 -177 70 -289 125 -355 173 -26 19 -53 35
-59 35 -21 0 42 -101 84 -135 103 -84 353 -188 599 -250 l169 -42 23 -99 c12
-54 31 -124 43 -154 14 -38 18 -57 10 -65 -16 -16 -243 -11 -329 8 -83 18
-222 60 -347 105 -46 17 -83 27 -83 24 0 -20 45 -75 81 -102 41 -29 146 -66
254 -90 47 -11 359 -53 490 -66 33 -4 68 -11 78 -16 31 -16 16 -50 -38 -86
-76 -50 -320 -168 -405 -195 -41 -14 -74 -28 -73 -33 5 -16 67 -26 133 -21 62
5 249 61 412 124 80 31 81 2 -9 262 -66 194 -98 328 -109 458 -11 141 40 302
123 387 69 71 223 179 318 223 47 21 57 48 22 64 -30 13 -173 -19 -246 -55
-50 -26 -59 -35 -125 -131 -21 -31 -40 -54 -43 -52 -2 3 14 42 35 89 29 64 50
94 88 126 52 45 152 102 177 102 23 0 29 15 21 55 -6 35 -7 35 -58 35 -28 0
-66 8 -86 18 -30 14 -38 27 -57 84 -13 37 -26 91 -29 121 l-7 55 59 -29 c81
-41 98 -37 102 26 2 46 -2 57 -50 130 -182 275 -241 402 -263 563 -8 61 15
402 27 402 4 0 8 -8 8 -18 0 -35 70 -304 99 -377 34 -88 79 -153 181 -258 80
-85 130 -120 130 -93 0 9 -26 56 -59 105 -97 148 -154 315 -196 573 -15 92
-16 120 -6 200 21 168 130 593 147 576 2 -3 11 -77 19 -164 26 -298 83 -609
144 -792 16 -49 53 -141 81 -203 29 -63 69 -159 90 -214 78 -203 83 -211 158
-247 188 -90 346 -202 389 -275 25 -43 28 -57 28 -139 l-1 -92 25 9 c35 14 77
2 116 -33 56 -48 59 -118 9 -177 l-25 -31 26 -35 c15 -19 31 -35 36 -35 5 0
36 11 68 24 107 43 212 125 237 184 8 19 17 89 20 160 8 149 14 172 47 172 43
0 129 -67 177 -136 24 -36 48 -68 53 -71 4 -2 24 7 43 22 47 36 128 65 182 65
47 0 43 -2 227 136 66 49 126 94 132 98 8 4 37 -11 74 -41 186 -145 199 -153
261 -153 73 0 144 -27 214 -81 30 -23 57 -39 61 -36 3 4 10 30 14 59 11 66 48
113 122 153 75 40 89 32 100 -61 13 -124 36 -240 56 -287 23 -53 103 -121 196
-166 101 -49 106 -49 148 3 20 24 37 48 37 52 0 4 -10 18 -22 31 -18 19 -22
36 -22 80 0 51 2 58 38 90 35 32 42 35 92 31 l54 -3 -6 61 c-8 76 13 155 56
206 39 47 175 138 306 206 l101 51 31 73 c28 67 97 233 191 463 83 201 140
481 176 855 8 85 15 163 15 173 0 50 21 1 59 -135 101 -370 116 -489 82 -668
-49 -256 -94 -385 -189 -531 -62 -96 -72 -119 -50 -119 18 0 210 199 250 260
42 64 84 186 123 355 15 66 30 129 34 140 11 28 35 -333 27 -401 -9 -75 -56
-217 -101 -302 -20 -37 -67 -114 -105 -172 -100 -150 -112 -174 -108 -223 4
-54 24 -58 101 -19 l57 29 0 -26 c0 -42 -27 -157 -44 -190 -21 -40 -48 -53
-121 -60 l-60 -6 -3 -41 c-3 -39 -1 -42 27 -47 43 -9 153 -80 195 -127 32 -35
72 -111 90 -167 13 -40 -3 -25 -49 46 -25 38 -58 80 -74 94 -54 45 -252 98
-291 77 -35 -19 -19 -41 55 -79 122 -63 277 -180 319 -240 42 -61 74 -142 87
-223 22 -132 -14 -345 -95 -568 -18 -52 -45 -132 -59 -177 l-25 -81 128 -46
c292 -105 397 -125 475 -92 29 12 28 13 -79 49 -175 61 -446 207 -446 240 0
34 36 44 270 72 376 44 523 85 603 166 48 49 64 89 30 70 -39 -20 -328 -112
-406 -128 -96 -20 -319 -25 -337 -7 -9 9 -8 19 4 41 12 25 44 139 70 253 5 23
18 28 177 67 271 68 525 178 614 267 46 46 86 116 66 116 -4 0 -33 -18 -64
-40 -31 -22 -96 -59 -144 -81 -170 -79 -558 -223 -578 -215 -14 5 -35 155 -38
264 l-2 73 190 116 c377 229 675 470 675 546 0 9 -3 17 -6 17 -3 0 -46 -33
-97 -73 -112 -89 -361 -271 -439 -320 -120 -77 -357 -185 -378 -172 -13 8 -92
154 -88 164 2 4 107 96 233 204 226 191 329 297 423 431 44 61 96 155 90 161
-2 1 -57 -49 -123 -112 -149 -142 -378 -351 -468 -426 -115 -97 -282 -167
-332 -140 -15 9 -7 19 53 80 68 70 152 180 166 217 4 11 -1 44 -10 74 l-17 53
120 117 c66 64 146 146 178 182 64 72 294 377 344 455 29 46 40 85 23 85 -4 0
-79 -73 -167 -161 -240 -242 -455 -434 -462 -412 -2 5 10 41 26 79 91 213 118
333 102 449 l-11 77 69 97 c111 154 157 232 194 322 44 105 140 405 135 420
-5 15 -142 -198 -292 -453 -70 -120 -132 -221 -137 -224 -12 -7 -117 216 -125
264 -7 43 17 119 107 345 77 192 139 373 139 404 0 58 -41 7 -144 -184 -72
-132 -108 -218 -136 -328 l-18 -70 -16 37 c-33 78 -27 103 95 380 77 176 111
268 139 380 23 90 66 357 75 476 6 74 -8 444 -21 550 l-5 42 -2844 0 -2843 0
-6 -62z m2918 -865 c116 -29 241 -113 266 -179 18 -46 12 -118 -13 -155 -96
-143 -451 -205 -681 -118 -121 45 -206 128 -206 201 0 191 338 325 634 251z
m1260 11 c27 -3 76 -14 109 -26 l59 -20 38 21 c21 11 40 21 44 21 3 0 6 -47 6
-105 l0 -105 -54 44 c-59 48 -115 70 -217 86 -80 12 -139 5 -198 -24 -67 -32
-86 -64 -86 -143 0 -60 3 -67 32 -94 51 -45 128 -62 247 -56 151 8 225 38 256
104 18 40 27 41 40 7 10 -25 0 -85 -17 -109 -17 -23 -72 -54 -133 -75 -89 -31
-302 -39 -409 -16 -146 31 -276 114 -302 194 -17 52 -3 95 49 153 74 82 192
131 372 152 27 3 88 0 164 -9z m-2484 -7 c0 -2 -22 -20 -50 -41 -27 -21 -50
-42 -50 -46 0 -5 43 -69 96 -142 86 -119 103 -138 170 -180 41 -27 79 -48 84
-48 6 0 10 -4 10 -10 0 -6 -103 -10 -290 -10 -159 0 -290 2 -290 4 0 2 34 23
75 47 113 64 104 73 -76 77 -125 2 -148 0 -153 -13 -4 -11 9 -26 41 -48 103
-72 114 -66 -132 -67 -123 0 -215 4 -210 9 6 4 37 30 70 56 42 34 90 90 159
188 112 157 109 133 25 199 l-34 27 278 1 c152 0 277 -1 277 -3z m455 -361
c104 -44 20 -147 -94 -116 -79 21 -88 85 -18 115 41 18 70 18 112 1z m1324
-14 c35 -26 37 -47 9 -75 -36 -36 -88 -42 -144 -18 -41 19 -45 23 -42 52 6 64
113 89 177 41z m1236 14 c72 -30 64 -95 -15 -116 -81 -22 -168 28 -140 80 13
24 62 49 98 50 12 0 38 -6 57 -14z m-540 -688 c-8 -66 -49 -343 -75 -508 -25
-154 -25 -160 -2 -160 10 0 81 22 158 48 206 72 268 92 281 92 6 0 15 -21 19
-47 4 -27 10 -58 15 -70 7 -19 3 -24 -34 -37 -74 -27 -230 -76 -308 -96 -42
-11 -117 -33 -167 -49 -91 -30 -162 -47 -162 -39 0 17 33 220 51 315 12 62 19
116 16 119 -3 4 -49 -1 -102 -10 -53 -9 -116 -16 -141 -16 l-44 0 0 48 c0 26
-3 57 -6 68 -5 19 -1 23 38 28 35 6 155 28 274 52 22 4 34 37 34 97 l0 30 -72
-7 c-40 -4 -104 -13 -143 -21 -150 -29 -154 -29 -159 -3 -3 13 -7 45 -8 72
l-3 50 70 13 c361 65 452 81 463 82 11 1 12 -11 7 -51z m-2559 -26 c18 -62 35
-110 84 -242 18 -47 38 -105 45 -130 7 -25 35 -100 63 -167 28 -67 58 -142 66
-165 8 -24 17 -51 21 -60 4 -11 3 -18 -5 -18 -7 0 -24 -8 -38 -19 -15 -10 -36
-21 -47 -25 -22 -6 -18 -13 -86 162 -19 48 -38 82 -46 82 -8 0 -32 -9 -54 -21
-43 -22 -323 -139 -324 -136 0 1 -10 23 -23 50 -12 26 -22 52 -22 57 0 10 103
60 175 86 89 32 205 90 205 103 0 28 -24 91 -34 91 -7 0 -50 -16 -96 -36 -47
-20 -96 -39 -110 -44 -14 -4 -55 -22 -92 -39 -37 -17 -73 -31 -80 -31 -12 1
-58 85 -58 107 0 6 12 14 28 18 15 3 45 15 67 25 22 10 58 26 80 35 22 10 72
33 111 51 38 19 76 34 82 34 20 0 23 22 8 65 -22 62 -21 62 -251 -40 -84 -37
-166 -68 -169 -64 -2 2 -16 28 -30 57 -26 51 -26 54 -9 67 10 8 29 17 43 20
14 3 70 26 125 50 55 24 143 60 195 80 52 21 106 43 120 50 14 7 28 11 32 9 4
-3 15 -30 24 -62z m1760 -97 c29 -82 62 -179 75 -215 42 -125 61 -176 90 -243
36 -82 83 -217 78 -221 -26 -21 -102 -57 -108 -50 -4 5 -14 27 -23 49 -59 150
-72 181 -78 188 -3 4 -33 -4 -66 -19 -32 -14 -78 -32 -101 -40 -23 -8 -81 -33
-129 -55 -48 -22 -90 -37 -95 -32 -4 4 -17 29 -28 55 -23 53 -22 54 54 88 28
12 63 28 79 36 16 8 33 14 39 14 5 0 46 17 90 39 45 21 90 41 100 44 16 6 17
9 2 36 -8 17 -15 39 -15 51 0 24 -26 26 -67 5 -44 -22 -144 -65 -154 -65 -5 0
-43 -16 -85 -35 -41 -19 -81 -35 -89 -35 -16 0 -70 100 -58 110 4 4 28 15 53
24 25 10 104 44 175 76 72 32 138 60 147 63 16 6 16 9 -1 59 -14 41 -22 52
-37 50 -18 -3 -75 -26 -184 -75 -72 -32 -184 -77 -193 -77 -4 0 -20 25 -35 56
-31 64 -33 61 68 100 30 12 91 37 135 57 44 20 114 48 155 64 41 15 86 33 100
40 14 7 31 12 39 11 9 -2 35 -62 67 -153z m-1284 93 c-9 -118 94 -229 225
-245 81 -9 152 17 214 80 61 62 71 85 68 152 l-3 50 68 3 69 3 -7 -85 c-4 -46
-15 -100 -24 -119 -49 -98 -168 -201 -249 -214 l-33 -6 0 -197 c0 -109 -3
-205 -6 -214 -5 -12 -21 -16 -75 -16 l-69 0 0 214 0 213 -39 7 c-41 6 -128 51
-149 76 -71 87 -122 210 -122 297 l0 44 68 -3 67 -3 -3 -37z"/>
<path d="M3814 6992 c-52 -33 -78 -79 -82 -147 -3 -50 0 -65 20 -94 41 -60 71
-76 146 -76 54 0 73 4 100 23 43 31 64 75 66 136 2 105 -55 168 -159 174 -46
2 -67 -1 -91 -16z"/>
<path d="M6057 4810 c-65 -20 -248 -108 -348 -166 -101 -59 -178 -122 -199
-164 -39 -77 -17 -203 46 -264 46 -45 171 -107 227 -113 52 -6 130 28 185 80
50 48 108 152 132 237 23 83 60 280 60 318 0 24 -31 -7 -290 -284 -47 -51 -90
-92 -96 -93 -6 0 -16 5 -22 12 -12 14 22 52 313 357 39 41 75 81 79 88 10 17
-17 15 -87 -8z"/>
<path d="M1916 4778 c41 -43 292 -313 351 -378 24 -25 29 -37 21 -47 -6 -7
-16 -13 -22 -12 -6 0 -60 54 -121 119 -277 299 -265 287 -265 260 0 -36 48
-286 67 -345 51 -165 199 -305 307 -293 48 6 152 53 213 97 70 51 105 189 69
274 -25 60 -154 152 -361 255 -83 41 -268 112 -293 112 -3 0 12 -19 34 -42z"/>
<path d="M4721 4414 c-12 -15 -21 -30 -21 -33 0 -18 -21 -178 -26 -193 -3 -9
-14 -20 -25 -23 -17 -6 -35 8 -92 68 -47 49 -89 82 -122 96 -60 27 -145 30
-181 7 -32 -21 -64 -87 -64 -130 0 -49 77 -126 165 -166 100 -45 99 -84 -3
-95 -86 -9 -142 -26 -152 -46 -12 -22 -13 -79 -1 -98 5 -8 40 -22 78 -31 96
-25 222 -75 274 -110 26 -17 62 -56 87 -94 66 -98 63 -97 130 -34 167 160 282
276 282 286 0 6 -29 36 -65 67 -35 31 -89 87 -120 125 -65 80 -80 133 -91 318
-8 121 -15 134 -53 86z"/>
<path d="M3220 4378 c0 -82 -32 -294 -50 -335 -12 -28 -58 -84 -119 -146
l-100 -101 72 -85 c40 -46 95 -112 123 -145 28 -34 69 -78 91 -99 l40 -38 43
63 c24 35 55 76 69 91 40 44 135 92 251 127 160 48 150 42 150 98 0 68 -16 80
-131 95 -86 11 -94 15 -97 35 -5 32 11 47 64 62 46 13 134 83 156 123 17 33
11 85 -16 132 -21 34 -34 45 -71 55 -87 24 -204 -33 -291 -142 -61 -78 -90
-60 -105 67 -13 107 -22 134 -54 158 l-25 18 0 -33z"/>
<path d="M3952 4279 c-47 -46 -49 -54 -27 -106 8 -19 15 -39 15 -43 0 -4 -36
-36 -80 -71 -44 -34 -80 -67 -80 -72 0 -4 25 -31 55 -59 l56 -51 -3 -116 -3
-116 -120 -5 -120 -5 -65 -47 c-76 -55 -174 -148 -201 -192 -10 -17 -19 -46
-19 -65 0 -30 23 -56 256 -290 234 -234 255 -253 250 -221 -3 19 -8 99 -12
176 l-7 142 -116 22 c-64 13 -122 26 -129 30 -7 3 42 12 110 19 68 6 140 14
161 18 l37 6 0 288 0 289 95 0 95 0 0 -289 0 -289 93 -11 c50 -6 123 -14 161
-17 37 -4 62 -10 55 -14 -8 -4 -67 -17 -131 -30 l-118 -23 -1 -101 c0 -98 -2
-126 -14 -211 -5 -39 0 -35 250 216 248 250 255 258 255 297 0 51 -47 113
-146 193 -134 110 -132 109 -258 109 l-112 0 -12 113 c-16 147 -2 201 63 235
l35 17 -75 59 c-41 32 -75 60 -75 61 0 1 7 19 15 38 8 20 15 46 15 57 0 21
-75 100 -95 100 -6 0 -29 -19 -53 -41z m120 -225 c60 -54 53 -155 -14 -190
-36 -19 -98 -18 -126 2 -29 20 -52 65 -52 101 0 33 30 81 62 100 31 18 103 10
130 -13z"/>
<path d="M5332 4214 c-38 -26 -28 -59 31 -102 111 -82 381 -262 393 -262 22 0
44 30 44 59 0 24 -15 38 -116 107 -63 43 -155 107 -204 140 -104 73 -119 79
-148 58z"/>
<path d="M2456 4066 c-116 -79 -213 -153 -218 -165 -5 -15 -1 -28 17 -48 l24
-28 33 18 c33 19 250 167 359 245 43 31 59 49 59 66 0 25 -28 56 -51 56 -8 0
-108 -65 -223 -144z"/>
<path d="M5892 3951 c-7 -21 -12 -49 -12 -62 0 -34 -46 -98 -76 -105 -14 -4
-57 -3 -95 0 l-70 7 3 -103 3 -103 105 1 c116 1 145 11 250 82 47 32 55 42 58
72 2 23 -6 52 -23 84 -26 48 -114 164 -126 165 -3 1 -11 -16 -17 -38z"/>
<path d="M2578 3931 c-37 -25 -67 -50 -68 -54 0 -8 117 -150 564 -682 843
-1005 980 -1175 1154 -1435 42 -63 78 -117 79 -119 4 -6 163 130 163 140 0 5
-62 89 -137 187 -76 97 -158 204 -182 236 -41 55 -262 323 -340 412 -20 22
-76 90 -126 150 -49 60 -92 111 -95 114 -4 3 -108 127 -232 275 -124 149 -267
320 -318 380 -51 61 -155 185 -232 278 -78 92 -146 167 -152 166 -6 -1 -41
-22 -78 -48z"/>
<path d="M2021 3890 c-71 -85 -93 -131 -89 -187 l3 -46 85 -51 c77 -45 93 -51
175 -60 50 -5 103 -6 118 -2 l27 6 0 100 0 100 -89 0 c-62 0 -92 4 -100 14 -6
7 -25 51 -41 96 -17 46 -32 85 -34 87 -2 3 -27 -23 -55 -57z"/>
<path d="M5038 3542 c-346 -347 -416 -422 -670 -726 -156 -186 -284 -344 -286
-351 -2 -6 19 -38 45 -69 l47 -58 51 54 c27 30 132 142 231 249 150 160 480
547 934 1094 41 50 85 101 97 115 l23 25 -32 27 c-18 15 -37 28 -43 28 -5 0
-184 -174 -397 -388z"/>
<path d="M1572 3705 c-11 -14 -26 -48 -32 -77 -17 -71 -7 -280 19 -384 40
-160 147 -396 232 -511 76 -102 419 -367 562 -433 106 -50 412 -107 525 -98
l43 3 -51 70 c-105 145 -141 289 -121 473 21 181 44 256 108 349 40 59 48 59
101 -1 l30 -34 -49 -97 c-58 -117 -84 -222 -76 -309 20 -205 118 -367 291
-481 41 -27 76 -53 76 -57 0 -3 -19 -13 -42 -22 -64 -23 -237 -37 -367 -30
-96 6 -114 5 -109 -7 3 -8 27 -81 53 -162 31 -97 54 -151 64 -154 19 -5 31
-12 136 -75 110 -66 151 -107 168 -165 l14 -47 26 42 c33 51 33 53 1 101 -29
44 -40 102 -30 156 8 43 59 103 103 121 48 21 122 17 167 -7 21 -11 42 -19 46
-17 5 2 46 53 92 113 46 61 109 142 141 182 31 40 57 75 57 79 0 3 -44 59 -98
123 -105 124 -240 284 -417 496 -155 186 -603 655 -625 655 -10 0 -27 -11 -38
-25 l-20 -25 -240 0 -240 0 -124 79 c-246 159 -316 201 -336 201 -11 0 -29
-11 -40 -25z m438 -528 c0 -103 102 -235 213 -276 83 -30 97 -28 97 12 0 32
-2 34 -59 51 -42 12 -69 29 -99 59 -45 46 -81 117 -82 160 0 48 26 30 43 -30
24 -86 107 -163 177 -163 16 0 20 6 20 33 -1 28 -6 35 -43 52 -46 22 -87 74
-87 111 0 35 27 30 35 -6 7 -31 56 -80 81 -80 10 0 14 14 14 55 0 48 2 55 20
55 18 0 20 -7 20 -55 0 -40 4 -55 14 -55 24 0 64 40 76 75 15 47 45 49 36 3
-9 -46 -36 -80 -85 -103 -37 -18 -41 -24 -41 -57 0 -35 1 -36 28 -29 94 27
155 94 176 194 6 27 36 39 36 14 0 -39 -35 -123 -65 -156 -36 -39 -99 -76
-147 -86 -24 -5 -28 -10 -28 -41 0 -36 0 -37 37 -31 131 22 251 147 269 281 5
35 11 46 25 46 15 0 17 -6 12 -37 -23 -164 -145 -296 -297 -322 l-41 -6 -3
-67 c-3 -63 -1 -68 20 -73 13 -3 50 -11 82 -18 33 -7 62 -19 64 -25 3 -9 -45
-12 -187 -12 -163 0 -191 2 -191 15 0 8 9 15 20 15 12 0 50 7 86 16 l65 17 -3
66 -3 66 -42 7 c-149 25 -276 158 -298 311 -6 43 -4 47 14 47 17 0 21 -6 21
-33z"/>
<path d="M6263 3657 c-62 -39 -160 -102 -218 -139 l-105 -68 -238 0 -239 0
-23 25 c-13 14 -31 25 -41 25 -21 0 -477 -482 -643 -679 -417 -497 -496 -594
-488 -605 35 -46 276 -362 278 -365 2 -2 26 6 53 18 137 58 271 -18 271 -154
0 -49 -27 -126 -49 -139 -26 -16 -10 -31 29 -28 55 6 87 -4 115 -34 l23 -24 6
37 c17 95 76 171 169 218 40 20 41 22 89 165 26 79 48 149 48 154 0 5 -44 6
-109 2 -169 -11 -387 17 -398 51 -2 6 22 28 54 49 135 86 226 202 275 349 34
106 32 253 -6 355 -16 41 -43 101 -62 132 l-33 57 40 41 c23 23 48 40 56 38
21 -4 90 -121 109 -183 23 -78 44 -222 44 -304 0 -133 -42 -254 -136 -388
l-43 -63 57 0 c147 1 429 57 526 106 120 60 362 241 485 364 80 79 130 156
195 300 89 195 127 353 128 520 0 154 -31 240 -86 240 -12 0 -72 -33 -133 -73z
m-923 -477 c0 -60 41 -142 99 -201 40 -39 73 -62 114 -77 83 -32 97 -30 97 13
0 30 -4 35 -27 41 -111 24 -192 107 -209 213 -5 33 -4 41 9 41 10 0 19 -17 28
-52 16 -68 93 -149 157 -165 l42 -11 0 37 c-1 32 -5 38 -42 56 -48 24 -75 57
-84 103 -9 46 21 44 36 -3 12 -35 52 -75 76 -75 10 0 14 15 14 55 0 48 2 55
20 55 18 0 20 -7 20 -55 0 -40 4 -55 14 -55 24 0 65 40 77 75 15 40 39 47 39
11 0 -37 -41 -89 -87 -111 -37 -17 -42 -24 -43 -52 0 -38 19 -43 73 -19 60 28
127 107 127 152 0 33 10 54 26 54 20 0 17 -47 -7 -100 -35 -79 -106 -137 -186
-155 -29 -6 -33 -10 -33 -41 0 -42 14 -43 97 -13 107 41 197 152 210 260 5 39
10 49 24 49 23 0 24 -17 5 -88 -37 -138 -154 -247 -289 -270 l-42 -7 -3 -67
-3 -66 70 -16 c38 -9 77 -16 85 -16 9 0 16 -7 16 -15 0 -13 -28 -15 -191 -15
-215 0 -239 10 -100 43 l82 19 -3 66 -3 67 -41 6 c-152 26 -270 154 -299 322
-5 33 -4 37 15 37 16 0 20 -6 20 -30z"/>
<path d="M5856 2280 c-63 -59 -106 -139 -106 -196 0 -24 11 -62 28 -95 23 -46
31 -54 59 -57 18 -2 69 9 114 23 95 30 120 25 156 -28 36 -53 35 -102 -4 -141
-35 -36 -71 -32 -98 11 -11 18 -23 32 -27 33 -3 0 -20 -18 -38 -40 -30 -38
-30 -40 -16 -69 38 -73 88 -70 164 8 53 55 112 171 112 221 0 40 -43 117 -80
143 -24 17 -59 12 -131 -20 -98 -44 -133 -39 -169 20 -26 41 -25 78 1 111 24
30 63 34 91 10 16 -16 19 -15 38 7 29 36 33 57 16 84 -24 37 -51 31 -110 -25z"/>
<path d="M1944 2129 c-93 -100 -170 -184 -172 -188 -1 -4 11 -25 29 -47 17
-21 35 -46 40 -54 8 -13 13 -10 32 13 32 38 65 35 100 -7 32 -41 33 -59 8
-112 l-19 -39 29 -36 c55 -70 53 -71 95 53 20 62 65 190 99 284 l61 170 -59
72 c-32 40 -62 72 -66 72 -5 0 -84 -81 -177 -181z m221 31 c4 -13 -11 -59 -45
-133 -64 -141 -75 -157 -104 -157 -29 0 -78 54 -74 81 2 10 41 66 87 124 63
79 89 105 106 105 15 0 26 -8 30 -20z"/>
<path d="M3763 2078 c-26 -35 -68 -90 -93 -123 -98 -127 -130 -170 -130 -176
0 -8 160 -142 165 -137 2 1 31 46 66 98 34 52 86 128 115 167 30 40 54 75 54
78 0 11 -113 155 -121 155 -4 0 -29 -28 -56 -62z"/>
<path d="M2262 1766 c-67 -135 -122 -249 -122 -254 0 -9 52 -62 62 -62 3 0 16
21 28 48 137 293 141 299 174 286 8 -3 17 -12 20 -20 3 -8 -22 -105 -55 -215
-58 -192 -60 -202 -43 -220 9 -10 22 -19 28 -19 6 0 47 67 91 147 92 170 115
199 145 183 11 -6 20 -16 20 -23 0 -7 -32 -99 -72 -206 l-72 -194 34 -28 c19
-16 35 -27 37 -26 2 3 193 557 193 562 0 2 -24 21 -54 43 l-54 41 -66 -109
c-37 -60 -71 -112 -77 -115 -5 -4 -19 -3 -30 0 -19 6 -21 12 -16 59 3 28 19
101 36 161 l31 110 -53 47 c-28 26 -54 48 -57 48 -3 0 -60 -110 -128 -244z"/>
<path d="M5514 1914 c-44 -37 -87 -72 -96 -78 -10 -6 -18 -17 -18 -25 0 -24
202 -541 212 -541 5 0 26 17 48 38 l39 37 -54 120 c-30 66 -55 130 -55 142 0
25 34 53 66 53 31 0 63 -43 104 -138 19 -45 38 -82 42 -82 14 0 68 52 68 66 0
22 -99 214 -110 214 -6 0 -19 -5 -29 -12 -42 -26 -75 18 -48 64 9 17 17 44 17
62 0 43 -58 140 -86 144 -15 2 -47 -19 -100 -64z m93 -63 c53 -78 52 -155 -2
-179 -33 -15 -55 6 -88 84 -33 75 -34 98 -4 119 33 24 68 15 94 -24z"/>
<path d="M3266 1769 c-18 -14 -26 -30 -26 -50 0 -62 37 -105 190 -225 l119
-93 68 6 c61 5 105 -1 156 -22 13 -6 17 -2 17 16 0 33 -26 60 -165 174 -66 55
-145 120 -175 145 -30 26 -65 52 -77 58 -33 18 -77 14 -107 -9z"/>
<path d="M4618 1763 c-121 -94 -375 -309 -385 -327 -20 -34 -15 -80 10 -106
l22 -25 3 35 c5 47 15 56 65 63 138 20 180 36 272 108 118 92 165 149 165 198
0 78 -83 107 -152 54z"/>
<path d="M4120 1589 c0 -91 4 -138 10 -134 6 3 10 12 10 19 0 8 18 32 40 54
22 22 40 45 40 52 0 13 -86 150 -95 150 -3 0 -5 -63 -5 -141z"/>
<path d="M5207 1680 c-75 -23 -136 -105 -137 -184 0 -48 73 -342 102 -409 25
-57 52 -72 107 -57 89 24 171 124 171 210 0 29 -80 265 -125 366 -21 48 -57
85 -80 83 -5 0 -23 -5 -38 -9z m26 -93 c13 -28 36 -95 106 -315 29 -90 34
-127 22 -150 -14 -26 -45 -36 -69 -23 -22 12 -35 44 -92 231 -23 74 -45 146
-50 160 -23 65 -22 89 3 114 31 31 61 25 80 -17z"/>
<path d="M2817 1563 c-14 -43 -55 -170 -91 -282 -52 -159 -64 -206 -54 -213
112 -74 250 -143 270 -135 19 7 58 148 58 208 0 36 -5 51 -25 69 -17 16 -25
33 -23 50 3 21 9 26 43 30 48 6 62 30 71 116 8 87 -11 117 -116 181 -47 29
-90 53 -96 53 -6 0 -23 -35 -37 -77z m153 -31 c27 -22 29 -75 5 -141 -20 -58
-32 -71 -64 -71 -54 0 -62 30 -34 133 25 94 49 115 93 79z m-73 -252 c34 -31
36 -54 12 -137 -30 -109 -33 -113 -79 -113 -63 0 -67 21 -30 148 38 128 53
144 97 102z"/>
<path d="M4757 1443 c-88 -32 -98 -38 -93 -57 2 -12 14 -84 26 -161 38 -257
67 -425 73 -431 17 -17 237 83 261 118 25 35 20 80 -34 294 -57 226 -66 251
-91 264 -26 14 -34 13 -142 -27z m85 -50 c8 -10 23 -49 31 -88 74 -325 81
-380 48 -409 -11 -10 -31 -16 -48 -14 l-28 3 -49 247 c-41 204 -47 250 -36
263 17 20 63 19 82 -2z"/>
<path d="M3255 1428 c-3 -7 -34 -98 -69 -203 -36 -104 -78 -228 -96 -274 -17
-46 -27 -88 -23 -92 4 -4 25 -14 46 -23 37 -15 38 -15 47 10 6 14 10 30 10 35
0 5 9 18 20 29 16 16 24 18 52 8 53 -17 63 -33 63 -95 l0 -56 43 -12 42 -13 2
229 c2 126 3 272 3 325 l0 96 -65 24 c-77 28 -70 27 -75 12z m79 -111 c16 -12
16 -22 2 -171 -18 -188 -23 -198 -88 -176 -27 9 -44 22 -46 34 -5 26 68 287
86 309 18 20 23 21 46 4z"/>
<path d="M4414 1343 c-73 -17 -74 -20 -74 -167 0 -50 -5 -180 -11 -289 -7
-109 -10 -199 -8 -202 3 -2 23 -1 47 2 l42 6 0 57 c0 65 8 75 65 84 52 8 65
-2 72 -53 7 -50 17 -56 71 -42 l40 11 -28 93 c-15 50 -54 188 -85 305 -32 116
-61 211 -64 211 -3 -1 -34 -8 -67 -16z m45 -107 c19 -22 66 -306 54 -324 -15
-24 -81 -38 -98 -21 -20 21 -25 319 -6 342 16 21 35 22 50 3z"/>
<path d="M3603 1330 c-32 -13 -55 -66 -61 -141 -6 -82 3 -100 102 -202 81 -84
93 -112 83 -190 -10 -74 -74 -101 -124 -51 -23 23 -25 31 -21 81 4 51 3 55
-19 64 -49 18 -53 14 -53 -55 0 -54 4 -69 25 -94 34 -41 84 -62 145 -62 56 0
104 20 114 47 15 37 18 139 6 183 -9 36 -29 62 -101 133 l-89 87 0 54 c0 39 6
60 21 80 42 53 109 20 109 -54 0 -39 1 -40 35 -40 l35 0 -6 48 c-7 56 -42 95
-101 111 -45 13 -70 13 -100 1z"/>
<path d="M4005 1303 c-60 -16 -85 -62 -85 -159 0 -85 13 -107 108 -179 48 -37
92 -78 99 -93 13 -29 17 -110 7 -137 -11 -29 -58 -46 -93 -34 -33 12 -39 25
-43 99 -3 44 -4 45 -40 48 l-38 3 0 -39 c0 -71 11 -102 47 -129 47 -36 115
-42 176 -15 65 29 81 65 73 159 -9 109 -24 131 -140 209 -76 51 -86 67 -86
135 0 65 18 89 68 89 36 0 62 -30 62 -72 0 -24 4 -28 30 -28 28 0 30 2 30 38
0 20 -6 48 -13 62 -19 38 -98 59 -162 43z"/>
<path d="M5112 927 c-18 -64 -48 -95 -135 -136 -45 -21 -90 -41 -99 -44 -23
-8 -22 -16 1 -46 l19 -24 108 73 c179 121 183 125 184 133 0 4 -15 24 -34 44
l-34 37 -10 -37z"/>
<path d="M2865 857 c17 -14 78 -63 135 -110 l104 -85 23 31 c13 17 22 35 20
40 -1 5 -40 25 -85 44 -61 27 -84 41 -88 58 -5 18 -14 24 -52 28 -26 2 -56 8
-67 12 -13 5 -10 -1 10 -18z"/>
<path d="M2663 802 c-35 -32 -66 -86 -61 -107 3 -13 333 -285 345 -285 18 0
73 55 94 94 24 46 24 46 4 65 -53 51 -322 261 -335 261 -9 0 -30 -13 -47 -28z"/>
<path d="M5144 714 c-93 -64 -175 -122 -183 -129 -12 -12 -12 -21 -3 -53 13
-42 77 -116 96 -109 6 3 90 59 187 126 l177 121 -8 35 c-9 39 -50 99 -79 114
-14 8 -51 -13 -187 -105z"/>
<path d="M3478 674 c34 -61 488 -444 527 -444 46 0 495 381 495 419 0 11 -4
11 -19 -3 -18 -16 -144 -45 -200 -46 -13 0 -29 7 -35 15 -10 13 -17 12 -60
-10 -29 -15 -66 -25 -91 -25 -40 0 -42 -2 -66 -51 l-24 -52 -22 52 c-13 30
-46 74 -75 103 -51 49 -52 50 -67 29 -24 -30 -100 -61 -153 -61 -62 0 -134 24
-182 62 -26 21 -35 25 -28 12z"/>
<path d="M2511 526 c-30 -50 -32 -60 -26 -104 3 -27 15 -63 25 -79 22 -37 112
-83 176 -91 44 -5 46 -3 94 48 28 30 50 56 49 59 0 8 -255 210 -272 217 -7 2
-26 -19 -46 -50z"/>
<path d="M5389 518 c-41 -27 -107 -72 -147 -100 l-73 -49 42 -47 c75 -83 110
-88 217 -36 62 30 88 66 97 135 6 42 3 56 -19 93 -15 25 -30 47 -34 50 -5 3
-42 -18 -83 -46z"/>
</g>
</svg>
