<svg width="174" height="19" viewBox="0 0 174 19" fill="none" xmlns="http://www.w3.org/2000/svg">
<path d="M12.36 18L11.352 14.976H4.656L3.648 18H0.072L5.952 1.2H10.056L15.96 18H12.36ZM5.712 11.88H10.32L8.016 5.016L5.712 11.88ZM34.0313 1.2V18H30.7433V7.104L26.0153 14.904H25.6313L20.9033 7.128V18H17.5913V1.2H20.9993L25.8233 9.144L30.6233 1.2H34.0313ZM47.3136 9.288C48.7856 10.136 49.5216 11.416 49.5216 13.128C49.5216 14.552 49.0176 15.72 48.0096 16.632C47.0016 17.544 45.7616 18 44.2896 18H37.1616V1.2H43.7856C45.2256 1.2 46.4336 1.648 47.4096 2.544C48.4016 3.424 48.8976 4.552 48.8976 5.928C48.8976 7.32 48.3696 8.44 47.3136 9.288ZM43.7856 4.296H40.4736V7.992H43.7856C44.2976 7.992 44.7216 7.816 45.0576 7.464C45.4096 7.112 45.5856 6.672 45.5856 6.144C45.5856 5.616 45.4176 5.176 45.0816 4.824C44.7456 4.472 44.3136 4.296 43.7856 4.296ZM44.2896 14.904C44.8496 14.904 45.3136 14.72 45.6816 14.352C46.0496 13.968 46.2336 13.488 46.2336 12.912C46.2336 12.352 46.0496 11.888 45.6816 11.52C45.3136 11.136 44.8496 10.944 44.2896 10.944H40.4736V14.904H44.2896ZM62.4928 18L61.4848 14.976H54.7888L53.7808 18H50.2048L56.0848 1.2H60.1888L66.0928 18H62.4928ZM55.8448 11.88H60.4528L58.1488 5.016L55.8448 11.88ZM73.0851 18.336C71.4211 18.336 70.0211 17.968 68.8851 17.232C67.7491 16.48 66.9491 15.464 66.4851 14.184L69.3171 12.528C69.9731 14.24 71.2611 15.096 73.1811 15.096C74.1091 15.096 74.7891 14.928 75.2211 14.592C75.6531 14.256 75.8691 13.832 75.8691 13.32C75.8691 12.728 75.6051 12.272 75.0771 11.952C74.5491 11.616 73.6051 11.256 72.2451 10.872C71.4931 10.648 70.8531 10.424 70.3251 10.2C69.8131 9.976 69.2931 9.68 68.7651 9.312C68.2531 8.928 67.8611 8.448 67.5891 7.872C67.3171 7.296 67.1811 6.624 67.1811 5.856C67.1811 4.336 67.7171 3.128 68.7891 2.232C69.8771 1.32 71.1811 0.863999 72.7011 0.863999C74.0611 0.863999 75.2531 1.2 76.2771 1.872C77.3171 2.528 78.1251 3.448 78.7011 4.632L75.9171 6.24C75.2451 4.8 74.1731 4.08 72.7011 4.08C72.0131 4.08 71.4691 4.24 71.0691 4.56C70.6851 4.864 70.4931 5.264 70.4931 5.76C70.4931 6.288 70.7091 6.72 71.1411 7.056C71.5891 7.376 72.4371 7.728 73.6851 8.112C74.1971 8.272 74.5811 8.4 74.8371 8.496C75.1091 8.576 75.4691 8.712 75.9171 8.904C76.3811 9.08 76.7331 9.248 76.9731 9.408C77.2291 9.568 77.5171 9.784 77.8371 10.056C78.1571 10.328 78.3971 10.608 78.5571 10.896C78.7331 11.184 78.8771 11.536 78.9891 11.952C79.1171 12.352 79.1811 12.792 79.1811 13.272C79.1811 14.824 78.6131 16.056 77.4771 16.968C76.3571 17.88 74.8931 18.336 73.0851 18.336ZM86.5616 18.336C84.8976 18.336 83.4976 17.968 82.3616 17.232C81.2256 16.48 80.4256 15.464 79.9616 14.184L82.7936 12.528C83.4496 14.24 84.7376 15.096 86.6576 15.096C87.5856 15.096 88.2656 14.928 88.6976 14.592C89.1296 14.256 89.3456 13.832 89.3456 13.32C89.3456 12.728 89.0816 12.272 88.5536 11.952C88.0256 11.616 87.0816 11.256 85.7216 10.872C84.9696 10.648 84.3296 10.424 83.8016 10.2C83.2896 9.976 82.7696 9.68 82.2416 9.312C81.7296 8.928 81.3376 8.448 81.0656 7.872C80.7936 7.296 80.6576 6.624 80.6576 5.856C80.6576 4.336 81.1936 3.128 82.2656 2.232C83.3536 1.32 84.6576 0.863999 86.1776 0.863999C87.5376 0.863999 88.7296 1.2 89.7536 1.872C90.7936 2.528 91.6016 3.448 92.1776 4.632L89.3936 6.24C88.7216 4.8 87.6496 4.08 86.1776 4.08C85.4896 4.08 84.9456 4.24 84.5456 4.56C84.1616 4.864 83.9696 5.264 83.9696 5.76C83.9696 6.288 84.1856 6.72 84.6176 7.056C85.0656 7.376 85.9136 7.728 87.1616 8.112C87.6736 8.272 88.0576 8.4 88.3136 8.496C88.5856 8.576 88.9456 8.712 89.3936 8.904C89.8576 9.08 90.2096 9.248 90.4496 9.408C90.7056 9.568 90.9936 9.784 91.3136 10.056C91.6336 10.328 91.8736 10.608 92.0336 10.896C92.2096 11.184 92.3536 11.536 92.4656 11.952C92.5936 12.352 92.6576 12.792 92.6576 13.272C92.6576 14.824 92.0896 16.056 90.9536 16.968C89.8336 17.88 88.3696 18.336 86.5616 18.336ZM105.36 18L104.352 14.976H97.656L96.648 18H93.072L98.952 1.2H103.056L108.96 18H105.36ZM98.712 11.88H103.32L101.016 5.016L98.712 11.88ZM117.263 1.2C119.567 1.2 121.487 2.008 123.023 3.624C124.575 5.24 125.351 7.232 125.351 9.6C125.351 11.968 124.575 13.96 123.023 15.576C121.487 17.192 119.567 18 117.263 18H110.591V1.2H117.263ZM117.263 14.832C118.719 14.832 119.903 14.352 120.815 13.392C121.727 12.416 122.183 11.152 122.183 9.6C122.183 8.048 121.727 6.792 120.815 5.832C119.903 4.856 118.719 4.368 117.263 4.368H113.903V14.832H117.263ZM141.837 15.816C140.141 17.496 138.077 18.336 135.645 18.336C133.213 18.336 131.149 17.496 129.453 15.816C127.773 14.12 126.933 12.048 126.933 9.6C126.933 7.152 127.773 5.088 129.453 3.408C131.149 1.712 133.213 0.863999 135.645 0.863999C138.077 0.863999 140.141 1.712 141.837 3.408C143.533 5.088 144.381 7.152 144.381 9.6C144.381 12.048 143.533 14.12 141.837 15.816ZM131.781 13.56C132.821 14.584 134.109 15.096 135.645 15.096C137.181 15.096 138.469 14.584 139.509 13.56C140.549 12.52 141.069 11.2 141.069 9.6C141.069 8 140.549 6.68 139.509 5.64C138.469 4.6 137.181 4.08 135.645 4.08C134.109 4.08 132.821 4.6 131.781 5.64C130.741 6.68 130.221 8 130.221 9.6C130.221 11.2 130.741 12.52 131.781 13.56ZM155.924 18L152.54 12.168H150.02V18H146.708V1.2H153.428C154.98 1.2 156.3 1.744 157.388 2.832C158.476 3.92 159.02 5.232 159.02 6.768C159.02 7.808 158.724 8.776 158.132 9.672C157.54 10.552 156.756 11.216 155.78 11.664L159.5 18H155.924ZM150.02 4.296V9.264H153.428C154.052 9.264 154.588 9.024 155.036 8.544C155.484 8.048 155.708 7.456 155.708 6.768C155.708 6.08 155.484 5.496 155.036 5.016C154.588 4.536 154.052 4.296 153.428 4.296H150.02ZM166.929 18.336C165.265 18.336 163.865 17.968 162.729 17.232C161.593 16.48 160.793 15.464 160.329 14.184L163.161 12.528C163.817 14.24 165.105 15.096 167.025 15.096C167.953 15.096 168.633 14.928 169.065 14.592C169.497 14.256 169.713 13.832 169.713 13.32C169.713 12.728 169.449 12.272 168.921 11.952C168.393 11.616 167.449 11.256 166.089 10.872C165.337 10.648 164.697 10.424 164.169 10.2C163.657 9.976 163.137 9.68 162.609 9.312C162.097 8.928 161.705 8.448 161.433 7.872C161.161 7.296 161.025 6.624 161.025 5.856C161.025 4.336 161.561 3.128 162.633 2.232C163.721 1.32 165.025 0.863999 166.545 0.863999C167.905 0.863999 169.097 1.2 170.121 1.872C171.161 2.528 171.969 3.448 172.545 4.632L169.761 6.24C169.089 4.8 168.017 4.08 166.545 4.08C165.857 4.08 165.313 4.24 164.913 4.56C164.529 4.864 164.337 5.264 164.337 5.76C164.337 6.288 164.553 6.72 164.985 7.056C165.433 7.376 166.281 7.728 167.529 8.112C168.041 8.272 168.425 8.4 168.681 8.496C168.953 8.576 169.313 8.712 169.761 8.904C170.225 9.08 170.577 9.248 170.817 9.408C171.073 9.568 171.361 9.784 171.681 10.056C172.001 10.328 172.241 10.608 172.401 10.896C172.577 11.184 172.721 11.536 172.833 11.952C172.961 12.352 173.025 12.792 173.025 13.272C173.025 14.824 172.457 16.056 171.321 16.968C170.201 17.88 168.737 18.336 166.929 18.336Z" fill="#2D547D"/>
</svg>
